<?xml version="1.0" encoding="UTF-8"?>
<svg id="Layer_2" data-name="Layer 2" xmlns="http://www.w3.org/2000/svg" viewBox="0 0 176 162">
  <defs>
    <style>
      .cls-1 {
        fill: none;
      }

      .cls-1, .cls-2 {
        stroke-width: 0px;
      }

      .cls-2 {
        fill: #231f20;
      }
    </style>
  </defs>
  <g id="Layer_1-2" data-name="Layer 1">
    <g id="TpjnXa.tif">
      <g>
        <path class="cls-1" d="M88.07,161.95c-28.64,0-57.28-.02-85.92.05C.29,162,0,161.55,0,159.8.05,107.27.05,54.75,0,2.22,0,.53.22,0,2.13,0c57.28.07,114.57.07,171.85,0,1.75,0,2.02.4,2.02,2.07-.05,52.61-.05,105.22,0,157.83,0,1.63-.21,2.1-2,2.09-28.64-.08-57.28-.05-85.92-.05Z"/>
        <g>
          <path class="cls-2" d="M41.53,101.5c.22-1.98,1.21-2.52,3.03-2.52,26.13.05,52.27.06,78.4,0,1.89,0,2.82.48,2.73,2.53H41.53Z"/>
          <path class="cls-2" d="M43.79,96.92c.24-1.84,1.15-2.48,3.12-2.48,24.64.08,49.27.07,73.91,0,1.88,0,2.74.63,3.02,2.47-26.7,0-53.38,0-80.06,0Z"/>
          <path class="cls-2" d="M91.13,117.18c0,1.99-.06,4.04.02,6.08.05,1.3-.18,1.91-1.71,1.91-1.6,0-1.95-.54-1.9-2.03.1-3.49,0-6.99.06-10.49.01-.73-.57-1.79.53-2.17,1.14-.4,2.03.13,2.79,1.07,1.61,2.01,3.31,3.95,5,5.9.35.41.55,1.05,1.5,1.04,0-2.21.1-4.43-.03-6.62-.09-1.56.77-1.47,1.84-1.49,1.15-.03,1.83.08,1.79,1.56-.11,3.74-.01,7.49-.06,11.23,0,.67.47,1.63-.51,1.96-1.03.35-1.87,0-2.61-.91-1.72-2.14-3.54-4.19-5.34-6.27-.29-.34-.43-.94-1.35-.78Z"/>
          <path class="cls-2" d="M137.97,116.47c0,2.83-.11,4.98.04,7.11.11,1.52-.66,1.57-1.78,1.55-1.06-.02-1.88.09-1.82-1.5.13-3.73.01-7.47.07-11.21,0-.65-.53-1.63.48-1.93.98-.3,1.86-.04,2.61.89,1.95,2.43,4.02,4.77,6.49,7.67,0-2.75.1-4.86-.03-6.96-.1-1.6.7-1.68,1.94-1.7,1.24-.02,1.76.24,1.73,1.63-.1,3.65,0,7.31-.06,10.96-.01.75.5,1.81-.54,2.19-1.17.43-1.98-.26-2.73-1.18-1.93-2.37-3.95-4.67-6.37-7.5Z"/>
          <path class="cls-2" d="M83.78,55.8c-5.81,0-11.63.02-17.44-.03-.61,0-1.78.54-1.76-.6.02-.86.39-2.01,1.71-2.06.33-.01.66,0,1,0,11.04,0,22.09,0,33.13,0,.41,0,.86-.08,1.24.04,1.02.31,1.43,1.31,1.42,2.13,0,.93-1.05.51-1.61.51-5.9.03-11.79.02-17.69.02Z"/>
          <path class="cls-2" d="M110.95,125.49c-2.2-.1-4.02-.56-5.58-1.78-.67-.53-1.37-1.04-.41-1.97.68-.66,1.05-1.62,2.3-.56,1.2,1.02,2.7,1.65,4.38,1.04.57-.21,1.07-.54,1.12-1.19.05-.66-.41-1.1-.96-1.31-1.07-.42-2.19-.73-3.27-1.14-2.09-.8-3.73-2.1-3.45-4.56.27-2.41,2.1-3.42,4.28-3.87,1.97-.4,3.8.09,5.48,1.06.6.35,1.76.75.86,1.85-.61.74-1.13,2.05-2.47.79-.35-.33-.83-.59-1.3-.7-1.13-.25-2.54-.62-3.04.78-.52,1.45.99,1.62,1.9,2.03.75.33,1.56.54,2.33.82,2.04.75,3.48,2.03,3.31,4.38-.16,2.31-1.67,3.49-3.8,4-.64.15-1.29.26-1.7.34Z"/>
          <path class="cls-2" d="M120.08,117.24c.28-1.97-1.07-5.72.49-6.42,2.58-1.15,6.01-.37,9.09-.42.63,0,.86.28.87.9.01,1.11.2,2.23-1.56,2.05-1.15-.12-2.33.03-3.49-.04-1.17-.06-1.84.13-1.82,1.59.02,1.51.82,1.57,1.92,1.5.75-.04,1.5.05,2.24-.02,1.11-.1,1.15.54,1.17,1.39.03.94-.25,1.39-1.25,1.31-.74-.06-1.5.04-2.24-.02-1.19-.1-1.83.17-1.84,1.59,0,1.42.62,1.68,1.82,1.61,1.16-.07,2.33.04,3.49-.03,1.12-.07,1.63.18,1.63,1.48,0,1.35-.62,1.45-1.67,1.43-2.33-.05-4.66-.11-6.99.02-1.62.09-1.99-.55-1.89-2.02.12-1.82.03-3.66.03-5.88Z"/>
          <path class="cls-2" d="M66.72,50.98c.4-1.89,1.29-2.51,3.15-2.49,9.31.11,18.63.11,27.95,0,1.87-.02,2.75.62,3.05,2.49h-34.14Z"/>
          <path class="cls-2" d="M103.49,83.39c-4.08,0-8.16,0-12.24,0-.89,0-1.8.24-1.84-1.27-.04-1.6.88-1.46,1.91-1.46,7.66.01,15.32,0,22.98,0,.42,0,.87-.08,1.24.06.97.37,1.39,1.35,1.34,2.17-.05.91-1.08.46-1.65.47-3.91.04-7.83.02-11.74.02Z"/>
          <path class="cls-2" d="M50.58,83.39c.32-2.05,1.17-2.81,3.17-2.78,7.47.12,14.93.04,22.4.06.93,0,2.04-.33,2.06,1.33.02,1.63-1.01,1.39-1.99,1.39-8.46,0-16.92,0-25.64,0Z"/>
          <path class="cls-2" d="M121.56,92.49c-10.34,0-20.57,0-30.79.01-.9,0-1.31-.18-1.34-1.21-.03-1.16.43-1.36,1.46-1.35,9.4.03,18.81.06,28.21-.01,1.85-.01,2.17,1.04,2.46,2.57Z"/>
          <path class="cls-2" d="M46.07,92.41c.23-1.93,1.18-2.51,3.01-2.49,8.99.09,17.99.02,26.98.07.8,0,2.06-.67,2.13,1.14.07,1.95-1.27,1.34-2.18,1.35-9.41.03-18.82.02-28.23.02-.56,0-1.11-.05-1.72-.08Z"/>
          <path class="cls-2" d="M119.47,87.96c-9.71,0-19.17-.02-28.64.02-1.12,0-1.39-.39-1.39-1.44,0-1.07.5-1.19,1.37-1.19,8.72.02,17.44.05,26.16-.02,1.77-.01,1.9,1.2,2.5,2.63Z"/>
          <path class="cls-2" d="M48.35,87.96c.26-1.7.77-2.66,2.68-2.64,8.48.09,16.97.04,25.45.05.78,0,1.73-.29,1.71,1.11-.02.99-.19,1.51-1.36,1.5-9.47-.04-18.93-.02-28.48-.02Z"/>
          <path class="cls-2" d="M69.05,46.4c.29-1.81,1.14-2.44,2.89-2.42,7.91.1,15.82.1,23.73,0,1.76-.02,2.6.59,2.87,2.42h-29.49Z"/>
          <path class="cls-2" d="M49.52,117.48c0-1.91.09-3.82-.03-5.71-.11-1.68.98-1.31,1.92-1.37,1.01-.06,1.72-.02,1.67,1.37-.1,2.9.05,5.8-.06,8.7-.06,1.46.48,1.9,1.85,1.79,1.07-.09,2.15.02,3.23-.02,1.19-.05,1.29.64,1.31,1.59.02.99-.39,1.31-1.32,1.3-2.4-.03-4.81-.06-7.21.01-1.12.03-1.41-.39-1.38-1.44.07-2.07.02-4.14.02-6.21Z"/>
          <path class="cls-2" d="M36.57,117.48c0-1.82.12-3.66-.03-5.47-.14-1.69.82-1.58,1.97-1.64,1.31-.08,1.72.34,1.67,1.66-.1,2.65.06,5.31-.06,7.96-.08,1.67.34,2.5,2.16,2.26.9-.12,1.83.04,2.73-.03,1.26-.1,1.49.5,1.51,1.62.02,1.26-.66,1.28-1.57,1.28-2.32-.02-4.65-.04-6.97,0-1.06.02-1.47-.33-1.43-1.42.07-2.07.02-4.15.02-6.22Z"/>
          <path class="cls-2" d="M71.35,41.89c.2-1.81,1.04-2.5,2.94-2.46,6.32.12,12.64.13,18.96,0,1.86-.04,2.76.61,3.09,2.47h-24.99Z"/>
          <path class="cls-2" d="M66.01,117.73c0,1.99-.08,3.99.03,5.98.08,1.36-.6,1.48-1.65,1.41-.94-.07-1.98.32-1.94-1.36.1-3.98.09-7.97,0-11.96-.03-1.37.61-1.48,1.65-1.4.93.07,2.04-.34,1.94,1.36-.12,1.99-.03,3.98-.03,5.98Z"/>
          <path class="cls-2" d="M57.56,69.52c.21-1.93,1.09-2.61,2.96-2.57,5.24.12,10.49.04,15.73.05.93,0,2.01-.36,1.95,1.35-.05,1.59-1.08,1.16-1.88,1.16-6.23.02-12.46.01-18.76.01Z"/>
          <path class="cls-2" d="M110.1,69.52c-6.54,0-12.93-.01-19.31.01-.88,0-1.34-.13-1.36-1.19-.02-1.14.4-1.38,1.44-1.37,5.65.04,11.31.05,16.96,0,1.76-.02,1.91,1.16,2.27,2.55Z"/>
          <path class="cls-2" d="M73.59,37.48c.26-1.83.96-2.72,2.91-2.67,4.9.13,9.8.04,14.7.05.49,0,1.03-.06,1.48.1.88.32,1.26,1.24,1.24,1.98-.03,1-1.04.51-1.59.51-6.22.04-12.44.03-18.74.03Z"/>
          <path class="cls-2" d="M97.74,60.45c-2.25,0-4.5-.02-6.74.01-.92.01-1.56-.01-1.59-1.27-.03-1.34.6-1.47,1.67-1.45,4,.04,7.99.05,11.99,0,1.07-.01,1.63.36,2.1,1.32.58,1.19.21,1.43-.94,1.41-2.16-.04-4.33-.01-6.49-.01Z"/>
          <path class="cls-2" d="M62.07,60.45c.33-2.05,1.21-2.83,3.19-2.75,3.72.16,7.45.05,11.17.04.94,0,1.79-.09,1.79,1.34,0,1.38-.76,1.38-1.75,1.37-4.76-.02-9.53,0-14.4,0Z"/>
          <path class="cls-2" d="M92.05,32.89c-5.3,0-10.18,0-15.05,0-.48,0-1.17.02-.96-.7.23-.83.43-1.97,1.55-1.99,4.16-.07,8.32-.1,12.47.02,1.36.04,1.23,1.51,1.99,2.67Z"/>
          <path class="cls-2" d="M107.96,65c-5.84,0-11.47-.02-17.11.02-1.07,0-1.44-.29-1.43-1.39.01-1.04.44-1.22,1.34-1.22,4.98.03,9.95.03,14.93,0,1.78-.01,1.69,1.4,2.27,2.58Z"/>
          <path class="cls-2" d="M59.86,65c.18-1.89.98-2.67,2.89-2.62,4.57.13,9.15.05,13.73.03.97,0,1.77-.07,1.72,1.36-.04,1.28-.74,1.23-1.62,1.23-5.57-.01-11.13,0-16.73,0Z"/>
          <path class="cls-2" d="M105.01,146.51c.1,1.25-.11,1.96-.57,2.57-.36.47-.71,1.39-1.38.97-.66-.41-1.75-1.21-1.24-2.04.7-1.14.25-1.83-.32-2.65-1.03-1.49-.76-2.8.6-3.9,1.67-1.35,3.44-2.59,5.05-4.01,1-.89,1.37-.2,1.94.42.65.7.67,1.27-.16,1.8-.14.09-.27.19-.38.31-1.92,1.96-6.21,2.74-3.54,6.54Z"/>
          <path class="cls-2" d="M78.2,28.03c.41-1.88,1.27-2.71,3.15-2.5,1.64.19,3.33.18,4.98,0,1.88-.2,2.75.62,3.06,2.5h-11.18Z"/>
          <path class="cls-2" d="M69.01,138.57c-.51-.06-.77-.04-1-.12-.67-.22-1.95.61-1.93-.75.02-1.33,1.28-.59,1.97-.7.81-.12,1.65-.03,2.84-.03-.86,2.88-1.66,5.58-2.48,8.28-.17.56-.63.85-1.15.64-.67-.26-.29-.87-.17-1.27.59-1.97,1.23-3.93,1.92-6.07Z"/>
          <path class="cls-2" d="M102.9,139.48c-.25-.24-.5-.37-.58-.57-.26-.66-1.64-1.21-.55-2.01,1.35-.99,2.26-3.09,4.26-2.56.96.25,1.79,1.51.19,2.56-1.16.76-2.21,1.7-3.32,2.57Z"/>
          <path class="cls-2" d="M80.5,23.4c.4-1.26.61-2.54,2.46-2.38,1.7.15,3.78-.57,4.05,2.38h-6.51Z"/>
          <path class="cls-2" d="M160.3,112.67c.47-.63-.28-1.63,1.03-2.03.45,1.62.21,3.19.15,4.78-1.38.22-1.14-1.32-2.09-1.63-.93.19.28,1.66-1.1,1.77-.57-1.58-.34-3.17-.13-4.84,1.28.2,1.3,1.39,2.14,1.96Z"/>
          <path class="cls-2" d="M156.37,115.48c-1.09.28-2.12.28-3.21-.01,1.37-1.56,1.46-3.06-.14-4.6,1.18-.44,2.26-.39,3.53-.06-1.54,1.56-1.54,3.09-.19,4.68Z"/>
          <path class="cls-2" d="M166.48,111.32c0,.57-.5.32-.87.35-.91.08-1.27.64-1.28,1.5-.01.89.35,1.42,1.3,1.42.4,0,.92-.12.87.49-.02.23-.38.57-.64.63-.97.24-1.8-.06-2.38-.88-.76-1.07-.69-2.19.01-3.25.54-.82,1.33-1.22,2.34-1.03.35.07.6.26.64.77Z"/>
          <path class="cls-2" d="M76.02,142.43c.06.15.21.33.17.46-.65,2.06-2.33.71-3.51,1-.97.24-1.87.04-1.64-1.36,1.64-.91,3.31-.78,4.98-.1Z"/>
          <path class="cls-2" d="M73.51,145.98c-.63-.48-2.36.91-2.34-.8.02-1.27,1.62-.46,2.49-.67.31-.08.66-.03.99,0,.62.04,1.49-.23,1.52.76.03,1.11-.93.61-1.48.71-.32.06-.66.01-1.17.01Z"/>
          <path class="cls-2" d="M76.43,141.24s0,0,0,0c-1.43-1.65-4.7-1.51-5.43.23,1.82.22,3.65.53,5.43-.23Z"/>
          <path class="cls-2" d="M85.05,19h-2.24c-.09-.91.53-1.48.89-2.22.76.47.89,1.26,1.35,2.22Z"/>
          <path class="cls-2" d="M88.8,134.43c-3.86-.03-6.81,2.85-6.85,6.67-.04,3.89,2.78,6.84,6.6,6.9,4,.07,6.98-2.83,6.99-6.78,0-3.84-2.91-6.78-6.74-6.8ZM88.77,146.26c-.61-3.31-.7-6.62-.03-10.45.69,3.79.47,7.12.03,10.45Z"/>
          <path class="cls-2" d="M127.42,141.16c-.18-3.73-2.21-5.7-5.93-5.71q-5.88-.03-5.88,5.88,0,6.13,5.87,6.13,6.23,0,5.94-6.3ZM119.99,145.68c-2.46.19-2.39-.94-2.59-2.81-.28-2.66,1.17-2.34,2.88-2.47,2.12-.15,2.86.6,2.34,2.65.65,2.4-.68,2.47-2.63,2.62Z"/>
          <path class="cls-2" d="M78.24,111.13c-.6-1.19-2.14-1.25-2.75-.05-2.3,4.52-4.38,9.14-6.75,14.19,1.63-.38,3.41.42,3.76-.54,1.29-3.48,4.06-1.87,6.25-2.21.57-.09,1.19-.07,1.38.69.65,2.63,2.58,1.88,4.63,1.74-2.22-4.75-4.27-9.34-6.52-13.82ZM74.78,119.96c.66-1.57,1.25-2.97,1.92-4.56,1.03,1.44,1.51,2.91,1.92,4.56h-3.84Z"/>
          <path class="cls-2" d="M33.24,123.83c-1.96-4.19-3.86-8.42-5.88-12.58-.68-1.39-2.37-1.31-3.06.12-2.15,4.45-4.22,8.94-6.39,13.57,2.04.24,3.89.75,4.56-1.79.07-.25.43-.59.66-.59,1.74-.05,3.5-.11,5.24,0,1.04.07.86,1.26,1.32,1.88.94,1.26,2.3.63,3.45.56.68-.04.32-.71.11-1.16ZM23.82,119.85c.64-1.49,1.23-2.9,2-4.71.75,1.79,1.3,3.12,1.97,4.71h-3.97Z"/>
          <path class="cls-2" d="M65.56,141.73c-.26-.73.08-1.27.08-1.9,0-2.17-1.3-2.67-3.19-2.89-2.26-.26-2.11,1.04-2.06,2.51.05,1.49.13,2.99-.02,4.46-.18,1.79.48,2.45,2,2.06,3.53,0,4.33-1.08,3.19-4.24ZM62.8,138.4c.86.03,1.56.31,1.55,1.18,0,.82-.68,1.26-1.84,1.34-.52.06-.86-.34-.9-1.17-.05-.89.15-1.4,1.19-1.36ZM63.11,144.59c-.81.05-1.57.04-1.51-1.23.05-.97.48-1.29,1.38-1.26.89.03,1.77.24,1.87,1.22.11,1.07-.77,1.29-1.74,1.28Z"/>
          <g>
            <path class="cls-2" d="M45.57,137.86c1.11-1.17,2.25-3.41,3.5-3.05,1.61.47,2.85,2.39,4.12,3.8.72.8.28,1.91.31,2.88.06,1.98.02,3.96.02,6.35-1.62-1.48-2.98-2.72-4.34-3.96-.19-.03-.4-.16-.36-.27,1.36-3.31-.91-4.55-3.26-5.76Z"/>
            <path class="cls-2" d="M47.6,144.44c-.87,1.38-2.2,3.5-3.34,3.1-1.67-.59-2.96-2.52-4.14-4.08-.45-.59-.16-1.76-.17-2.67-.02-1.89,0-3.78,0-6.15,1.59,1.45,2.88,2.62,4.16,3.79.09.14.24.3.21.43-.65,2.89.88,4.49,3.28,5.58Z"/>
            <path class="cls-2" d="M47.14,139.42c.78.06,1.44.67,1.36,1.86-.07,1.18-.8,1.74-1.96,1.69-1.11-.05-1.61-.73-1.61-1.76,0-1.18.59-1.83,2.21-1.79Z"/>
          </g>
        </g>
      </g>
    </g>
  </g>
</svg>